<svg width="41" height="40" viewBox="0 0 41 40" fill="none" xmlns="http://www.w3.org/2000/svg">
    <path fill-rule="evenodd" clip-rule="evenodd" d="M17.0792 0.85942C19.1859 -0.286473 21.7297 -0.286474 23.8363 0.85942L36.0491 7.50256C38.3247 8.74033 39.7412 11.1233 39.7412 13.7137V26.2863C39.7412 28.8767 38.3247 31.2597 36.0491 32.4974L23.8363 39.1406C21.7297 40.2865 19.1859 40.2865 17.0792 39.1406L4.86642 32.4974C2.5909 31.2597 1.17439 28.8767 1.17439 26.2863L1.17439 13.7137C1.17439 11.1233 2.5909 8.74033 4.86642 7.50256L17.0792 0.85942Z" fill="#F7931A"/>
    <g clip-path="url(#clip0_142:47925)">
        <path d="M20.4578 36C29.2943 36 36.4578 28.8366 36.4578 20C36.4578 11.1634 29.2943 4 20.4578 4C11.6212 4 4.45776 11.1634 4.45776 20C4.45776 28.8366 11.6212 36 20.4578 36Z" fill="#F7931A"/>
        <path d="M27.4898 18.02C27.8038 15.924 26.2068 14.797 24.0248 14.045L24.7328 11.205L23.0048 10.775L22.3148 13.54C21.8608 13.426 21.3948 13.32 20.9298 13.214L21.6248 10.431L19.8968 10L19.1888 12.839C18.8128 12.753 18.4428 12.669 18.0848 12.579L18.0868 12.57L15.7028 11.975L15.2428 13.821C15.2428 13.821 16.5258 14.115 16.4988 14.133C17.1988 14.308 17.3248 14.771 17.3038 15.139L16.4978 18.374C16.5458 18.386 16.6078 18.404 16.6778 18.431L16.4948 18.386L15.3648 22.918C15.2788 23.13 15.0618 23.449 14.5718 23.328C14.5898 23.353 13.3158 23.015 13.3158 23.015L12.4578 24.993L14.7078 25.554C15.1258 25.659 15.5358 25.769 15.9388 25.872L15.2238 28.744L16.9508 29.174L17.6588 26.334C18.1308 26.461 18.5888 26.579 19.0368 26.691L18.3308 29.519L20.0588 29.949L20.7738 27.083C23.7218 27.641 25.9378 27.416 26.8708 24.75C27.6228 22.604 26.8338 21.365 25.2828 20.558C26.4128 20.298 27.2628 19.555 27.4898 18.02ZM23.5398 23.558C23.0068 25.705 19.3918 24.544 18.2198 24.253L19.1698 20.448C20.3418 20.741 24.0988 21.32 23.5398 23.558ZM24.0748 17.989C23.5878 19.942 20.5798 18.949 19.6048 18.706L20.4648 15.256C21.4398 15.499 24.5828 15.952 24.0748 17.989Z" fill="white"/>
    </g>
    <defs>
        <clipPath id="clip0_142:47925">
            <rect width="32" height="32" fill="white" transform="translate(4.45776 4)"/>
        </clipPath>
    </defs>
</svg>
