<svg width="41" height="40" viewBox="0 0 41 40" fill="none" xmlns="http://www.w3.org/2000/svg">
    <path fill-rule="evenodd" clip-rule="evenodd" d="M17.0792 0.85942C19.1859 -0.286473 21.7297 -0.286474 23.8363 0.85942L36.0491 7.50256C38.3247 8.74033 39.7412 11.1233 39.7412 13.7137V26.2863C39.7412 28.8767 38.3247 31.2597 36.0491 32.4974L23.8363 39.1406C21.7297 40.2865 19.1859 40.2865 17.0792 39.1406L4.86642 32.4974C2.5909 31.2597 1.17439 28.8767 1.17439 26.2863L1.17439 13.7137C1.17439 11.1233 2.5909 8.74033 4.86642 7.50256L17.0792 0.85942Z" fill="#627EEA"/>
    <g clip-path="url(#clip0_142:48027)">
        <path d="M20.4578 36C29.2943 36 36.4578 28.8366 36.4578 20C36.4578 11.1634 29.2943 4 20.4578 4C11.6212 4 4.45776 11.1634 4.45776 20C4.45776 28.8366 11.6212 36 20.4578 36Z" fill="#627EEA"/>
        <path d="M20.4578 8V16.87L27.9548 20.22L20.4578 8Z" fill="white" fill-opacity="0.602"/>
        <path d="M20.9558 8L13.4578 20.22L20.9558 16.87V8Z" fill="white"/>
        <path d="M20.4578 26.352V32.379L27.9598 22L20.4578 26.352Z" fill="white" fill-opacity="0.602"/>
        <path d="M20.9558 32.379V26.351L13.4578 22L20.9558 32.379Z" fill="white"/>
        <path d="M20.4578 24.701L27.9548 20.348L20.4578 17V24.701Z" fill="white" fill-opacity="0.2"/>
        <path d="M13.4578 20.348L20.9558 24.701V17L13.4578 20.348Z" fill="white" fill-opacity="0.602"/>
    </g>
    <defs>
        <clipPath id="clip0_142:48027">
            <rect width="32" height="32" fill="white" transform="translate(4.45776 4)"/>
        </clipPath>
    </defs>
</svg>
