<svg width="41" height="40" viewBox="0 0 41 40" fill="none" xmlns="http://www.w3.org/2000/svg">
    <path fill-rule="evenodd" clip-rule="evenodd" d="M17.0792 0.85942C19.1859 -0.286473 21.7297 -0.286474 23.8363 0.85942L36.0491 7.50256C38.3247 8.74033 39.7412 11.1233 39.7412 13.7137V26.2863C39.7412 28.8767 38.3247 31.2597 36.0491 32.4974L23.8363 39.1406C21.7297 40.2865 19.1859 40.2865 17.0792 39.1406L4.86642 32.4974C2.5909 31.2597 1.17439 28.8767 1.17439 26.2863L1.17439 13.7137C1.17439 11.1233 2.5909 8.74033 4.86642 7.50256L17.0792 0.85942Z" fill="#23292F"/>
    <g clip-path="url(#clip0_142:48039)">
        <path d="M20.4578 36C29.2943 36 36.4578 28.8366 36.4578 20C36.4578 11.1634 29.2943 4 20.4578 4C11.6212 4 4.45776 11.1634 4.45776 20C4.45776 28.8366 11.6212 36 20.4578 36Z" fill="#23292F"/>
        <path d="M27.5278 12H30.4178L24.4028 17.957C23.3511 18.9931 21.9341 19.5739 20.4578 19.5739C18.9815 19.5739 17.5644 18.9931 16.5128 17.957L10.4928 12H13.3878L17.9578 16.523C18.6233 17.1799 19.5207 17.5482 20.4558 17.5482C21.3908 17.5482 22.2883 17.1799 22.9538 16.523L27.5278 12ZM13.3528 28.563H10.4578L16.5128 22.57C17.5644 21.5339 18.9815 20.9531 20.4578 20.9531C21.9341 20.9531 23.3511 21.5339 24.4028 22.57L30.4578 28.562H27.5628L22.9578 24C22.2923 23.3431 21.3948 22.9748 20.4598 22.9748C19.5247 22.9748 18.6273 23.3431 17.9618 24L13.3518 28.563H13.3528Z" fill="white"/>
    </g>
    <defs>
        <clipPath id="clip0_142:48039">
            <rect width="32" height="32" fill="white" transform="translate(4.45776 4)"/>
        </clipPath>
    </defs>
</svg>
