<svg width="1441" height="901" viewBox="0 0 1441 901" fill="none" xmlns="http://www.w3.org/2000/svg">
<mask id="mask0_145:47888" style="mask-type:alpha" maskUnits="userSpaceOnUse" x="0" y="0" width="1441" height="901">
<rect x="0.394409" y="0.258301" width="1440" height="900" fill="#C4C4C4"/>
</mask>
<g mask="url(#mask0_145:47888)">
<rect x="-65.6056" y="-0.219604" width="1572" height="950.938" fill="#2F307D"/>
<g filter="url(#filter0_f_145:47888)">
<path d="M-57.4352 396.431L744.672 -12.904L1109.27 -12.9041L1555.46 96.2522L-8.82288 706.357L-57.4352 396.431Z" fill="url(#paint0_linear_145:47888)"/>
</g>
<g filter="url(#filter1_f_145:47888)">
<path d="M-100.714 383.892L800.516 -0.364844L1109.27 -12.9041L1555.46 96.2522L-8.82271 706.357L-100.714 383.892Z" fill="url(#paint1_linear_145:47888)"/>
</g>
<g filter="url(#filter2_f_145:47888)">
<ellipse rx="329.847" ry="107.571" transform="matrix(0.914846 -0.403803 0.330497 0.943807 845.845 310.625)" fill="#E73800"/>
</g>
<g filter="url(#filter3_f_145:47888)">
<path d="M673.858 29.7195C498.912 55.0633 280.699 103.639 66.2493 29.7195C54.9623 24.0876 46.3089 30.1419 101.991 99.4149C171.593 186.006 399.211 150.103 673.858 29.7195Z" fill="#4463B1"/>
</g>
<g opacity="0.4" filter="url(#filter4_f_145:47888)">
<path d="M610.146 41.7009C471.391 61.8018 298.321 100.328 128.235 41.7009C119.283 37.2341 112.42 42.0359 156.583 96.9782C211.786 165.656 392.316 137.18 610.146 41.7009Z" fill="#4463B1"/>
</g>
<path d="M683.625 328.087C1018.7 164.353 1157.6 156.556 1478.79 218.931L1584.69 429.447L36.0335 907.004C7.67616 901.806 89.8538 770.559 313.82 571.739C356.037 534.262 348.545 491.821 683.625 328.087Z" fill="url(#paint2_linear_145:47888)"/>
<g opacity="0.7" filter="url(#filter5_f_145:47888)">
<path d="M899.373 256.846C1242.53 115.769 1157.59 156.557 1478.78 218.932L1584.69 429.447L48.1859 903.106C19.8286 897.908 -12.5797 787.712 84.6455 630.216C206.177 433.345 499.909 421.071 899.373 256.846Z" fill="#4463B1"/>
</g>
<g filter="url(#filter6_f_145:47888)">
<path d="M806.89 345.63C1199.22 247.339 1179.43 156.557 1534.59 218.932L1584.69 429.447L-114.335 903.106C-145.691 897.908 -181.527 787.713 -74.0185 630.216C60.3677 433.345 511.24 419.7 806.89 345.63Z" fill="#4463B1"/>
</g>
<g filter="url(#filter7_f_145:47888)">
<ellipse rx="329.847" ry="107.571" transform="matrix(0.914846 -0.403803 0.330497 0.943807 270.446 471.637)" fill="#4463B1"/>
</g>
<g opacity="0.4" filter="url(#filter8_f_145:47888)">
<ellipse rx="329.847" ry="156.166" transform="matrix(0.914846 -0.403803 0.330497 0.943807 791.607 574.681)" fill="#4463B1"/>
</g>
<g filter="url(#filter9_f_145:47888)">
<ellipse rx="329.847" ry="107.571" transform="matrix(0.914846 -0.403803 0.330497 0.943807 1318.49 400.323)" fill="#3A78F0"/>
</g>
<g filter="url(#filter10_f_145:47888)">
<ellipse rx="296.397" ry="165.703" transform="matrix(0.914846 -0.403803 0.330497 0.943807 -44.2947 545.345)" fill="#55B2D1"/>
</g>
<g filter="url(#filter11_f_145:47888)">
<path d="M-430.606 798.364V1422.26H1785.39V341.085L-430.606 798.364Z" fill="white"/>
</g>
<g filter="url(#filter12_f_145:47888)">
<path d="M1169.26 194.858L1652.02 -50.7417L1532.23 244.955L1169.26 194.858Z" fill="#55B2D1"/>
</g>
<g opacity="0.4" filter="url(#filter13_f_145:47888)">
<path d="M304 802.956L1066.35 450.559L1427.49 400.053L1878.03 402.586L376.501 978.908L304 802.956Z" fill="url(#paint3_linear_145:47888)"/>
</g>
<g opacity="0.4" filter="url(#filter14_f_145:47888)">
<path d="M888.395 621.572L1690.55 378.135L2055.17 378.135L2501.39 443.052L937.01 805.889L888.395 621.572Z" fill="url(#paint4_linear_145:47888)"/>
</g>
<g opacity="0.4" filter="url(#filter15_f_145:47888)">
<path d="M840.167 675.563L1707.21 340.163L2012.79 295.575L2463.51 306.281L954.479 854.874L840.167 675.563Z" fill="url(#paint5_linear_145:47888)"/>
</g>
</g>
<defs>
<filter id="filter0_f_145:47888" x="-64.4352" y="-19.9041" width="1626.9" height="733.261" filterUnits="userSpaceOnUse" color-interpolation-filters="sRGB">
<feFlood flood-opacity="0" result="BackgroundImageFix"/>
<feBlend mode="normal" in="SourceGraphic" in2="BackgroundImageFix" result="shape"/>
<feGaussianBlur stdDeviation="3.5" result="effect1_foregroundBlur_145:47888"/>
</filter>
<filter id="filter1_f_145:47888" x="-124.714" y="-36.9041" width="1704.18" height="767.261" filterUnits="userSpaceOnUse" color-interpolation-filters="sRGB">
<feFlood flood-opacity="0" result="BackgroundImageFix"/>
<feBlend mode="normal" in="SourceGraphic" in2="BackgroundImageFix" result="shape"/>
<feGaussianBlur stdDeviation="12" result="effect1_foregroundBlur_145:47888"/>
</filter>
<filter id="filter2_f_145:47888" x="377.97" y="-20.8593" width="935.751" height="662.969" filterUnits="userSpaceOnUse" color-interpolation-filters="sRGB">
<feFlood flood-opacity="0" result="BackgroundImageFix"/>
<feBlend mode="normal" in="SourceGraphic" in2="BackgroundImageFix" result="shape"/>
<feGaussianBlur stdDeviation="82" result="effect1_foregroundBlur_145:47888"/>
</filter>
<filter id="filter3_f_145:47888" x="-10.0953" y="-39.8875" width="751.953" height="255.045" filterUnits="userSpaceOnUse" color-interpolation-filters="sRGB">
<feFlood flood-opacity="0" result="BackgroundImageFix"/>
<feBlend mode="normal" in="SourceGraphic" in2="BackgroundImageFix" result="shape"/>
<feGaussianBlur stdDeviation="34" result="effect1_foregroundBlur_145:47888"/>
</filter>
<filter id="filter4_f_145:47888" x="85.6171" y="4.42639" width="560.529" height="166.418" filterUnits="userSpaceOnUse" color-interpolation-filters="sRGB">
<feFlood flood-opacity="0" result="BackgroundImageFix"/>
<feBlend mode="normal" in="SourceGraphic" in2="BackgroundImageFix" result="shape"/>
<feGaussianBlur stdDeviation="18" result="effect1_foregroundBlur_145:47888"/>
</filter>
<filter id="filter5_f_145:47888" x="8.30994" y="150.591" width="1587.38" height="763.516" filterUnits="userSpaceOnUse" color-interpolation-filters="sRGB">
<feFlood flood-opacity="0" result="BackgroundImageFix"/>
<feBlend mode="normal" in="SourceGraphic" in2="BackgroundImageFix" result="shape"/>
<feGaussianBlur stdDeviation="5.5" result="effect1_foregroundBlur_145:47888"/>
</filter>
<filter id="filter6_f_145:47888" x="-192.265" y="152.426" width="1822.96" height="796.68" filterUnits="userSpaceOnUse" color-interpolation-filters="sRGB">
<feFlood flood-opacity="0" result="BackgroundImageFix"/>
<feBlend mode="normal" in="SourceGraphic" in2="BackgroundImageFix" result="shape"/>
<feGaussianBlur stdDeviation="23" result="effect1_foregroundBlur_145:47888"/>
</filter>
<filter id="filter7_f_145:47888" x="-197.43" y="140.152" width="935.751" height="662.969" filterUnits="userSpaceOnUse" color-interpolation-filters="sRGB">
<feFlood flood-opacity="0" result="BackgroundImageFix"/>
<feBlend mode="normal" in="SourceGraphic" in2="BackgroundImageFix" result="shape"/>
<feGaussianBlur stdDeviation="82" result="effect1_foregroundBlur_145:47888"/>
</filter>
<filter id="filter8_f_145:47888" x="321.417" y="212.023" width="940.381" height="725.316" filterUnits="userSpaceOnUse" color-interpolation-filters="sRGB">
<feFlood flood-opacity="0" result="BackgroundImageFix"/>
<feBlend mode="normal" in="SourceGraphic" in2="BackgroundImageFix" result="shape"/>
<feGaussianBlur stdDeviation="82" result="effect1_foregroundBlur_145:47888"/>
</filter>
<filter id="filter9_f_145:47888" x="850.611" y="68.8387" width="935.751" height="662.969" filterUnits="userSpaceOnUse" color-interpolation-filters="sRGB">
<feFlood flood-opacity="0" result="BackgroundImageFix"/>
<feBlend mode="normal" in="SourceGraphic" in2="BackgroundImageFix" result="shape"/>
<feGaussianBlur stdDeviation="82" result="effect1_foregroundBlur_145:47888"/>
</filter>
<filter id="filter10_f_145:47888" x="-484.981" y="184.4" width="881.373" height="721.889" filterUnits="userSpaceOnUse" color-interpolation-filters="sRGB">
<feFlood flood-opacity="0" result="BackgroundImageFix"/>
<feBlend mode="normal" in="SourceGraphic" in2="BackgroundImageFix" result="shape"/>
<feGaussianBlur stdDeviation="82" result="effect1_foregroundBlur_145:47888"/>
</filter>
<filter id="filter11_f_145:47888" x="-586.606" y="185.085" width="2528" height="1393.17" filterUnits="userSpaceOnUse" color-interpolation-filters="sRGB">
<feFlood flood-opacity="0" result="BackgroundImageFix"/>
<feBlend mode="normal" in="SourceGraphic" in2="BackgroundImageFix" result="shape"/>
<feGaussianBlur stdDeviation="78" result="effect1_foregroundBlur_145:47888"/>
</filter>
<filter id="filter12_f_145:47888" x="1101.26" y="-118.742" width="618.759" height="431.697" filterUnits="userSpaceOnUse" color-interpolation-filters="sRGB">
<feFlood flood-opacity="0" result="BackgroundImageFix"/>
<feBlend mode="normal" in="SourceGraphic" in2="BackgroundImageFix" result="shape"/>
<feGaussianBlur stdDeviation="34" result="effect1_foregroundBlur_145:47888"/>
</filter>
<filter id="filter13_f_145:47888" x="297" y="393.053" width="1588.03" height="592.855" filterUnits="userSpaceOnUse" color-interpolation-filters="sRGB">
<feFlood flood-opacity="0" result="BackgroundImageFix"/>
<feBlend mode="normal" in="SourceGraphic" in2="BackgroundImageFix" result="shape"/>
<feGaussianBlur stdDeviation="3.5" result="effect1_foregroundBlur_145:47888"/>
</filter>
<filter id="filter14_f_145:47888" x="881.395" y="371.135" width="1627" height="441.754" filterUnits="userSpaceOnUse" color-interpolation-filters="sRGB">
<feFlood flood-opacity="0" result="BackgroundImageFix"/>
<feBlend mode="normal" in="SourceGraphic" in2="BackgroundImageFix" result="shape"/>
<feGaussianBlur stdDeviation="3.5" result="effect1_foregroundBlur_145:47888"/>
</filter>
<filter id="filter15_f_145:47888" x="816.167" y="271.575" width="1671.34" height="607.299" filterUnits="userSpaceOnUse" color-interpolation-filters="sRGB">
<feFlood flood-opacity="0" result="BackgroundImageFix"/>
<feBlend mode="normal" in="SourceGraphic" in2="BackgroundImageFix" result="shape"/>
<feGaussianBlur stdDeviation="12" result="effect1_foregroundBlur_145:47888"/>
</filter>
<linearGradient id="paint0_linear_145:47888" x1="749.013" y1="-12.9041" x2="82.0886" y2="551.124" gradientUnits="userSpaceOnUse">
<stop stop-color="#FF7D54"/>
<stop offset="1" stop-color="white" stop-opacity="0"/>
</linearGradient>
<linearGradient id="paint1_linear_145:47888" x1="501.61" y1="242.443" x2="30.1323" y2="626.539" gradientUnits="userSpaceOnUse">
<stop offset="0.0104167" stop-color="#91B0ED"/>
<stop offset="0.458333" stop-color="#437DD5"/>
<stop offset="1" stop-color="#8A3AF0"/>
</linearGradient>
<linearGradient id="paint2_linear_145:47888" x1="1164.54" y1="269.611" x2="415.653" y2="537.061" gradientUnits="userSpaceOnUse">
<stop stop-color="#819CFF"/>
<stop offset="0.65537" stop-color="#E73800"/>
<stop offset="1" stop-color="#819CFF"/>
</linearGradient>
<linearGradient id="paint3_linear_145:47888" x1="1070.65" y1="449.958" x2="768.25" y2="1036.61" gradientUnits="userSpaceOnUse">
<stop stop-color="#3A4CF0"/>
<stop offset="1" stop-color="white" stop-opacity="0"/>
</linearGradient>
<linearGradient id="paint4_linear_145:47888" x1="1694.89" y1="378.135" x2="1316.4" y2="916.412" gradientUnits="userSpaceOnUse">
<stop stop-color="#D73AF0"/>
<stop offset="1" stop-color="white" stop-opacity="0"/>
</linearGradient>
<linearGradient id="paint5_linear_145:47888" x1="1427.91" y1="519.512" x2="1202.19" y2="923.155" gradientUnits="userSpaceOnUse">
<stop offset="0.166667" stop-color="#FF9471"/>
<stop offset="0.541667" stop-color="#DBC0C6" stop-opacity="0.69"/>
<stop offset="0.791667" stop-color="#C2DEFF" stop-opacity="0.62"/>
<stop offset="1" stop-color="#9492FF" stop-opacity="0"/>
</linearGradient>
</defs>
</svg>
